<?xml version="1.0" encoding="UTF-8" standalone="no"?>
<!-- Created with Inkscape (http://www.inkscape.org/) -->

<svg
   width="121.45246mm"
   height="18.305763mm"
   viewBox="0 0 121.45246 18.305763"
   version="1.1"
   id="svg5"
   inkscape:version="1.1.2 (76b9e6a115, 2022-02-25)"
   xmlns:inkscape="http://www.inkscape.org/namespaces/inkscape"
   xmlns:sodipodi="http://sodipodi.sourceforge.net/DTD/sodipodi-0.dtd"
   xmlns="http://www.w3.org/2000/svg"
   xmlns:svg="http://www.w3.org/2000/svg">
  <sodipodi:namedview
     id="namedview7"
     pagecolor="#505050"
     bordercolor="#eeeeee"
     borderopacity="1"
     inkscape:pageshadow="0"
     inkscape:pageopacity="0"
     inkscape:pagecheckerboard="0"
     inkscape:document-units="mm"
     showgrid="false"
     inkscape:zoom="0.33512179"
     inkscape:cx="-267.06709"
     inkscape:cy="374.49072"
     inkscape:window-width="1366"
     inkscape:window-height="704"
     inkscape:window-x="0"
     inkscape:window-y="27"
     inkscape:window-maximized="1"
     inkscape:current-layer="layer1"
     fit-margin-top="0"
     fit-margin-left="0"
     fit-margin-right="0"
     fit-margin-bottom="0" />
  <defs
     id="defs2" />
  <g
     inkscape:label="Capa 1"
     inkscape:groupmode="layer"
     id="layer1"
     transform="translate(-3.9261538,-5.5086502)">
    <path
       id="Selección"
       fill="none"
       stroke="#000000"
       stroke-width="1"
       d="m 67.592956,14.494751 c 0,0 0,3.88055 0,3.88055 0,0.8008 0.07761,2.00024 -0.359833,2.68463 -1.13594,1.77799 -4.811874,1.92263 -6.695701,1.90146 -7.295422,-0.0882 -10.413968,-7.06964 -7.761087,-12.34718 0.72672,-1.4499117 1.788578,-2.5294087 3.17499,-3.3584337 1.883827,-1.128885 3.513656,-1.248829 5.644427,-1.227663 2.949213,0.03175 3.83821,0.79022 6.34998,2.11666 -0.271638,0.571499 -0.370415,0.881942 -0.807858,1.326441 -2.204855,2.6246577 -3.273768,0.119944 -5.602094,0 -2.176632,-0.243416 -4.282709,1.3334957 -5.15054,3.2596557 -1.139468,2.52588 0.370416,5.18582 2.741075,6.28295 1.735661,0.80433 3.732378,0.84314 4.780124,-1.0301 0.582082,-1.0407 0.507999,-2.33186 0.511526,-3.48897 0,0 3.174991,0 3.174991,0 z m 9.52497,-8.2831927 c 4.021655,-0.638526 7.916309,0.08467 10.336357,3.6971 3.174991,4.7413227 0.179917,11.8144927 -5.397483,12.8869327 -3.026824,0.58208 -6.794479,0.11289 -9.108694,-2.06727 -4.282709,-4.03224 -3.474851,-12.4565467 4.16982,-14.5167627 z M 4.4459279,6.3808913 c 2.811631,0 9.7331091,-0.402165 11.9802961,0.723192 2.762242,1.379357 3.210268,5.1646507 0.366888,6.6851177 0,0 0,0.70555 0,0.70555 3.016241,1.24178 3.877016,4.71663 1.372302,6.95676 -1.594551,1.42875 -3.626545,1.397 -5.605622,1.54163 0,0 -5.2916501,0.32103 -5.2916501,0.32103 -0.878414,-0.0141 -2.155466,0.0706 -2.621131,-0.85725 -0.313971,-0.62794 -0.201083,-3.8876 -0.201083,-4.78718 0,0 0,-11.2888497 0,-11.2888497 z m 116.0635321,0 c 0,0 4.23332,0 4.23332,0 -0.58208,2.398882 -0.40217,5.2457887 -0.64558,7.7610867 -0.0706,0.712613 0.0176,2.056693 -0.41981,2.610543 -0.48683,0.61384 -2.35655,1.05128 -2.73402,-0.8643 0,0 -0.43391,-9.5073297 -0.43391,-9.5073297 z M 7.9736949,13.083648 c 1.502829,0 5.8948981,0.328082 6.4522861,-1.456968 0.839608,-2.6740467 -5.0235401,-2.4235747 -6.4522861,-2.4235747 0,0 0,3.8805427 0,3.8805427 z M 80.292917,9.4112433 c -1.58044,0.08114 -3.591267,0.335138 -4.653125,1.6509947 -2.63877,3.266713 -0.825497,8.565413 3.594794,8.703003 6.826229,0.21519 7.577644,-9.584945 1.058331,-10.3539977 z M 25.612529,17.669741 c 0.776109,0.97367 1.569857,2.04611 2.920991,2.18016 1.806217,0.0776 3.266713,-1.39346 4.476737,0 1.400523,1.70039 -0.278694,2.58233 -1.7533,2.92452 -4.127488,0.95956 -9.376805,-0.49741 -9.517916,-5.45745 -0.05644,-1.84502 0.02117,-3.40077 1.24883,-4.903599 2.444742,-2.9915457 8.117392,-2.9033517 10.600939,0 1.400524,1.640412 1.195913,3.263189 1.195913,5.256369 0,0 -9.172194,0 -9.172194,0 z m 15.169398,0 c 0.776109,0.97367 1.569856,2.04611 2.920991,2.18016 1.777995,0.0776 3.326684,-1.38994 4.469681,0 1.231191,1.58044 -0.377471,2.58939 -1.746245,2.92452 -4.116904,1.00542 -9.376804,-0.53975 -9.517915,-5.45745 -0.05644,-1.84502 0.02117,-3.40077 1.24883,-4.903599 2.444742,-2.9915457 8.117391,-2.9033517 10.600939,0 1.400524,1.640412 1.195913,3.263189 1.195913,5.256369 0,0 -9.172194,0 -9.172194,0 z m 50.799844,-7.408306 c 1.396995,0 2.578797,-0.3774707 3.17499,1.05833 1.464023,-0.582082 2.264826,-0.973664 3.880543,-1.044219 7.429476,-0.3245547 6.349976,7.591755 6.349976,12.685845 0,0 -3.88054,0 -3.88054,0 0,-2.32479 0.51153,-8.02214 -2.13077,-9.04519 -1.298218,-0.500943 -2.515298,0.58561 -3.11149,1.64394 -1.012469,1.78858 -0.754942,5.31282 -0.754942,7.40125 0,0 -3.527767,0 -3.527767,0 0,0 0,-12.699956 0,-12.699956 z m 22.577709,9.524966 c -1.66511,-3.11149 -5.50332,-1.0301 -6.79096,-4.58609 -1.70038,-4.706044 6.32882,-5.8455117 9.20748,-4.575516 1.36877,0.603248 1.38288,2.846907 -1.35819,2.603491 -1.9685,-0.176388 -1.9438,-0.137583 -3.88055,0.208138 1.57691,3.069157 4.59668,1.241777 6.4417,3.919347 1.35114,1.95791 0.0212,4.1416 -1.8556,5.0941 -2.3248,1.17827 -6.3782,0.29633 -8.81942,-0.19403 0,0 0.35278,-2.82221 0.35278,-2.82221 3.49602,0.2928 2.76224,1.05833 6.70276,0.35277 z m -82.902523,-4.23332 c -1.499301,-3.72179 -4.282709,-3.450152 -5.997204,0 0,0 5.997204,0 5.997204,0 z m 15.169397,0 c -1.308801,-3.746485 -4.303875,-3.404291 -5.997203,0 0,0 5.997203,0 5.997203,0 z m -38.4526591,4.5861 c 1.686273,0 4.4626261,0.1517 5.9830931,-0.4445 0.959552,-0.37747 1.813272,-1.15005 1.425217,-2.28246 -0.666747,-1.96497 -5.7396761,-1.50636 -7.4083101,-1.50636 0,0 0,4.23332 0,4.23332 z m 113.3506751,-0.6985 c 3.13971,-1.14652 4.09574,2.07433 2.27894,3.15735 -1.8415,1.1042 -4.31446,-0.97013 -2.27894,-3.15735 z"
       style="fill:#ffffff;fill-opacity:1" />
  </g>
</svg>
